# xmcd
#
# Track frame offsets: 
#        150
#        13067
#        23230
#        37230
#        56650
#        69092
#        87157
#        101445
#        118765
#        134802
#
# Disc length: 2022 seconds
#
# Revision: 3
# Processed by: cddbd v1.5.2PL0 Copyright (c) Steve Scherf et al.
# Submitted via: ExactAudioCopyFreeDBPlugin 1.0
#
DISCID=8807e40a
DTITLE=Lyle Lovett - Lyle Lovett
DYEAR=1986
DGENRE=Swing
TTITLE0=Cowboy Man
TTITLE1=God Will
TTITLE2=Farther Down The Line
TTITLE3=This Old Porch
TTITLE4=Why I Don't Know
TTITLE5=If I Were The Man You Wanted
TTITLE6=You Can't Resist It
TTITLE7=Waltzing Fool, The
TTITLE8=Acceptable Level Of Ecstasy, An (The Wedding Song)
TTITLE9=Closing Time
EXTD=
EXTT0=
EXTT1=
EXTT2=
EXTT3=
EXTT4=
EXTT5=
EXTT6=
EXTT7=
EXTT8=
EXTT9=
PLAYORDER=
